<svg xmlns="http://www.w3.org/2000/svg" width="33.015" height="33.015" viewBox="0 0 33.015 33.015"><path d="M30.657,2.25H2.351A2.368,2.368,0,0,0,0,4.63V32.885a2.368,2.368,0,0,0,2.351,2.38H30.657a2.375,2.375,0,0,0,2.358-2.38V4.63A2.375,2.375,0,0,0,30.657,2.25ZM9.978,30.549H5.085V14.793h4.9V30.549ZM7.532,12.641A2.837,2.837,0,1,1,10.369,9.8a2.838,2.838,0,0,1-2.837,2.837ZM28.321,30.549H23.427V22.884c0-1.828-.037-4.178-2.542-4.178-2.55,0-2.94,1.99-2.94,4.046v7.8H13.051V14.793h4.694v2.152h.066A5.154,5.154,0,0,1,22.447,14.4c4.952,0,5.873,3.265,5.873,7.509Z" transform="translate(0 -2.25)" fill="#fff"/></svg>