<svg xmlns="http://www.w3.org/2000/svg" width="32.603" height="32.596" viewBox="0 0 32.603 32.596"><path d="M16.3,10.178a8.357,8.357,0,1,0,8.357,8.357A8.344,8.344,0,0,0,16.3,10.178Zm0,13.79a5.433,5.433,0,1,1,5.433-5.433A5.443,5.443,0,0,1,16.3,23.969ZM26.948,9.837A1.949,1.949,0,1,1,25,7.887,1.945,1.945,0,0,1,26.948,9.837Zm5.535,1.978a9.646,9.646,0,0,0-2.633-6.83,9.71,9.71,0,0,0-6.83-2.633C20.33,2.2,12.263,2.2,9.572,2.352a9.7,9.7,0,0,0-6.83,2.626,9.678,9.678,0,0,0-2.633,6.83c-.153,2.691-.153,10.757,0,13.449a9.646,9.646,0,0,0,2.633,6.83,9.722,9.722,0,0,0,6.83,2.633c2.691.153,10.757.153,13.449,0a9.647,9.647,0,0,0,6.83-2.633,9.71,9.71,0,0,0,2.633-6.83c.153-2.691.153-10.75,0-13.441ZM29.007,28.144a5.5,5.5,0,0,1-3.1,3.1c-2.146.851-7.237.655-9.608.655s-7.47.189-9.608-.655a5.5,5.5,0,0,1-3.1-3.1c-.851-2.146-.655-7.237-.655-9.608s-.189-7.47.655-9.608a5.5,5.5,0,0,1,3.1-3.1c2.146-.851,7.237-.655,9.608-.655s7.47-.189,9.608.655a5.5,5.5,0,0,1,3.1,3.1c.851,2.146.655,7.237.655,9.608S29.858,26.005,29.007,28.144Z" transform="translate(0.005 -2.238)" fill="#fff"/></svg>