<svg xmlns="http://www.w3.org/2000/svg" width="63.2" height="32.34" viewBox="0 0 63.2 32.34"><g transform="translate(0.001)"><path d="M506.708,225.724l-4.935,28.711h10.062l1.41-13.395,5.512,14.1,5.96-14.549,1.6,14.227,9.357-.385-3.4-28.711h-8.524l-4.165,11.089-4.1-11.087Z" transform="translate(-501.774 -224.192)" fill="#fff"/><path d="M582.43,221.165h27.419v32.34H582.177Z" transform="translate(-546.649 -221.165)" fill="#fff"/><g transform="translate(13.256 1.165)"><path d="M607.411,233.191s-1.282-1.384-5.385-1.32a7.136,7.136,0,0,0-7.133,7.344c.076,3.653,3.131,6.326,7.076,6.515,4.488-.365,5.441-1.068,5.441-1.068l-.513,8.4a17.991,17.991,0,0,1-6.216.577c-3.2-.32-15.41-2.884-15.154-14.42s9-15.447,15.795-15.317c3.533-.177,4.913.6,4.913.6Z" transform="translate(-561.105 -223.873)" fill="#04294f"/><g transform="translate(0 0.989)"><path d="M564.748,226.171l-35.113,1.218,30.046.7h5.067Z" transform="translate(-529.274 -226.171)" fill="#04294f"/><path d="M564.748,226.171l-35.113,1.218,30.046.7h5.067Z" transform="translate(-529.274 -226.171)" fill="#04294f"/><path d="M557.044,236.645l-27.455,1.1,27.8.91Z" transform="translate(-529.247 -232.137)" fill="#04294f"/><path d="M554.352,247.482c-.228.038-25.029,1.1-25.029,1.1l25.181,1.176Z" transform="translate(-529.096 -238.309)" fill="#04294f"/><path d="M553.558,260.345l-24.763.948,25.6.948Z" transform="translate(-528.795 -245.635)" fill="#04294f"/><path d="M557.081,274.882l-24.5.72,25.977.948Z" transform="translate(-530.952 -253.915)" fill="#04294f"/><path d="M562.505,286.594l-29.393.5,33.322,1.293Z" transform="translate(-531.254 -260.586)" fill="#04294f"/></g></g></g></svg>